<?xml version="1.0" encoding="utf-8"?>
<svg viewBox="0 0 37 24" fill="none" xmlns="http://www.w3.org/2000/svg">
  <path d="M32.3578 22.3889H4.64586C3.72782 22.3889 2.86333 21.9566 2.3125 21.2222C1.53472 20.1852 1.53472 18.7592 2.3125 17.7222C2.86333 16.9878 3.72779 16.5555 4.64583 16.5555H32.3542C33.2722 16.5555 34.1367 16.9878 34.6875 17.7222C35.4653 18.7592 35.4653 20.1852 34.6875 21.2222C34.1367 21.9566 33.2759 22.3889 32.3578 22.3889Z" stroke="#f50a46" stroke-width="2"/>
  <path d="M 6.833 16.556 L 6.833 5.207 C 6.833 4.168 7.218 3.165 7.913 2.393 C 8.711 1.506 9.847 1 11.04 1 L 13.837 1 L 25.959 1 C 27.152 1 28.289 1.506 29.086 2.393 C 29.782 3.165 30.166 4.168 30.166 5.207 L 30.166 16.556" stroke="#f50a46" stroke-width="2"/>
</svg>